Coordinates
version=1
nRows=5
nColumns=40
inDegrees=yes

Units are S.I. units (second, meters, Newtons, ...)
If the header above contains a line with 'inDegrees', this indicates whether rotational values are in degrees (yes) or radians (no).

endheader
time	pelvis_tilt	pelvis_list	pelvis_rotation	pelvis_tx	pelvis_ty	pelvis_tz	hip_flexion_r	hip_adduction_r	hip_rotation_r	knee_angle_r	knee_angle_r_beta	ankle_angle_r	subtalar_angle_r	mtp_angle_r	hip_flexion_l	hip_adduction_l	hip_rotation_l	knee_angle_l	knee_angle_l_beta	ankle_angle_l	subtalar_angle_l	mtp_angle_l	lumbar_extension	lumbar_bending	lumbar_rotation	arm_flex_r	arm_add_r	arm_rot_r	elbow_flex_r	pro_sup_r	wrist_flex_r	wrist_dev_r	arm_flex_l	arm_add_l	arm_rot_l	elbow_flex_l	pro_sup_l	wrist_flex_l	wrist_dev_l
      9.36500000	     88.97647674	     66.17880811	     89.11811391	      0.38989370	      0.92860275	      0.61514044	     79.53513149	    -46.55142373	     -9.36502118	     45.13497811	      0.78775398	    -20.10742399	      0.00000000	      0.00000000	     79.93624694	    -49.31536855	     -6.68751501	     53.35072700	      0.93114584	    -10.73826356	      0.00000000	      0.00000000	    -46.08197486	     -7.43930270	      2.69668531	      0.00000000	    -14.99999999	      0.00000000	     75.00017585	     45.00000026	      0.00000000	      0.00000000	      0.00000000	    -14.99999999	      0.00000000	     75.00017585	     45.00000026	      0.00000000	      0.00000000
      9.37000000	     88.98030375	     66.12748204	     89.10865592	      0.38987099	      0.92869273	      0.61509625	     79.58256785	    -46.53891515	     -9.36377654	     45.12916706	      0.78765255	    -20.12244453	      0.00000000	      0.00000000	     79.97422425	    -49.30103203	     -6.64042778	     53.32083668	      0.93062416	    -10.73545609	      0.00000000	      0.00000000	    -46.03727412	     -7.41860091	      2.68071042	      0.00000000	    -14.99999999	      0.00000000	     75.00017585	     45.00000026	      0.00000000	      0.00000000	      0.00000000	    -14.99999999	      0.00000000	     75.00017585	     45.00000026	      0.00000000	      0.00000000
      9.37500000	     88.95938042	     66.09838497	     89.10082668	      0.38981664	      0.92880659	      0.61513431	     79.61619271	    -46.52185784	     -9.37337177	     45.14780530	      0.78797785	    -20.07876808	      0.00000000	      0.00000000	     79.95472778	    -49.31613550	     -6.66212646	     53.27298998	      0.92978908	    -10.77985648	      0.00000000	      0.00000000	    -46.01594150	     -7.43082173	      2.59905502	      0.00000000	    -14.99999999	      0.00000000	     75.00017585	     45.00000026	      0.00000000	      0.00000000	      0.00000000	    -14.99999999	      0.00000000	     75.00017585	     45.00000026	      0.00000000	      0.00000000
      9.38000000	     88.96375710	     66.07388217	     89.09663490	      0.38973865	      0.92887408	      0.61512335	     79.63512685	    -46.52529383	     -9.39093117	     45.15622110	      0.78812474	    -20.06972477	      0.00000000	      0.00000000	     79.97449508	    -49.31101107	     -6.63736180	     53.26870608	      0.92971431	    -10.75394183	      0.00000000	      0.00000000	    -46.00426568	     -7.41627994	      2.62276877	      0.00000000	    -14.99999999	      0.00000000	     75.00017585	     45.00000026	      0.00000000	      0.00000000	      0.00000000	    -14.99999999	      0.00000000	     75.00017585	     45.00000026	      0.00000000	      0.00000000
      9.38500000	     88.96142569	     66.04342987	     89.09196245	      0.38964857	      0.92892893	      0.61513109	     79.65498654	    -46.54357964	     -9.44612412	     45.18902974	      0.78869735	    -19.99597942	      0.00000000	      0.00000000	     79.98594296	    -49.30847930	     -6.62661759	     53.25852678	      0.92953665	    -10.72340882	      0.00000000	      0.00000000	    -45.98209880	     -7.40472324	      2.59318885	      0.00000000	    -14.99999999	      0.00000000	     75.00017585	     45.00000026	      0.00000000	      0.00000000	      0.00000000	    -14.99999999	      0.00000000	     75.00017585	     45.00000026	      0.00000000	      0.00000000
